<svg version="1.1" id="Layer_1" xmlns="http://www.w3.org/2000/svg" xmlns:xlink="http://www.w3.org/1999/xlink" x="0px" y="0px"
	 width="100%" viewBox="0 0 512 512" enable-background="new 0 0 512 512" xml:space="preserve">
<path fill="#000000" opacity="1.000000" stroke="none" 
	d="
M306.000000,513.000000 
	C204.024765,513.000000 102.549522,513.000000 1.037143,513.000000 
	C1.037143,342.399750 1.037143,171.799469 1.037143,1.099597 
	C171.558578,1.099597 342.117249,1.099597 512.837952,1.099597 
	C512.837952,171.666550 512.837952,342.333252 512.837952,513.000000 
	C444.132782,513.000000 375.316376,513.000000 306.000000,513.000000 
M361.940247,265.053131 
	C361.940247,265.053131 361.892456,265.074097 361.911743,264.326416 
	C361.128418,258.275665 355.991394,256.066437 352.035034,252.221603 
	C356.098358,244.801773 356.353699,237.753021 351.309845,230.386124 
	C348.334259,226.040161 347.662659,220.949051 348.743958,215.266205 
	C350.248322,207.359619 350.780273,199.186905 350.905487,191.115326 
	C351.197601,172.287445 351.349548,153.442154 350.824677,134.624374 
	C350.615936,127.141365 349.265472,119.466400 347.056732,112.303772 
	C339.620789,88.189713 324.852966,69.737663 302.452728,57.753967 
	C275.786774,43.488186 248.441498,41.726143 219.760849,53.823700 
	C206.588058,59.722427 195.448685,68.127983 186.035629,79.213722 
	C172.471619,95.187988 163.664993,113.681313 163.414093,134.165909 
	C163.051788,163.747238 159.570724,193.639862 166.209549,223.114456 
	C160.729172,225.332077 159.361664,229.635849 159.739685,235.758545 
	C157.612534,241.916458 159.422104,247.510422 161.727783,253.476120 
	C157.166351,256.204865 152.506912,258.851166 151.489120,265.565613 
	C149.483612,270.783081 148.700058,275.975311 151.428574,281.611664 
	C146.587631,283.995575 143.100311,287.473877 142.060791,293.468567 
	C142.060791,293.468567 141.945724,293.904724 141.374008,294.296387 
	C139.931580,298.210968 138.489136,302.125580 136.881714,306.737091 
	C131.034485,317.863403 123.318687,327.205994 112.379402,333.826477 
	C108.881920,335.943176 106.144165,339.315216 102.790817,342.729706 
	C98.897781,348.662842 94.192635,354.229675 91.310669,360.618896 
	C87.426300,369.230377 84.229378,378.303680 82.031548,387.488495 
	C78.759331,401.163239 76.465454,415.082367 74.076828,428.952881 
	C73.216072,433.951172 73.243690,439.107025 72.937691,444.195282 
	C72.466164,452.035889 72.056488,459.880188 71.622192,467.693787 
	C195.656372,467.693787 318.714264,467.693787 442.836365,467.693787 
	C441.815704,454.863983 440.826233,442.425934 439.983887,429.120575 
	C439.645050,425.372223 439.667816,421.548035 438.900879,417.889435 
	C436.420319,406.056244 434.187897,394.129211 430.854889,382.527069 
	C426.663086,367.935272 421.020905,353.856262 410.784180,341.394257 
	C407.632996,338.821777 404.701355,335.903107 401.290466,333.740265 
	C390.041687,326.607483 382.494537,316.286377 375.916534,304.299652 
	C374.622864,300.851532 373.329193,297.403412 371.843292,293.421661 
	C371.527222,292.968567 371.211182,292.515472 370.854401,291.348328 
	C368.121246,288.192780 365.388092,285.037201 362.869629,281.072510 
	C362.853882,276.062988 362.838135,271.053467 362.695374,265.603119 
	C362.520813,265.327362 362.272858,265.161011 361.940247,265.053131 
z"/>
<path fill="#494643" opacity="1.000000" stroke="none" 
	d="
M103.058792,342.112885 
	C106.144165,339.315216 108.881920,335.943176 112.379402,333.826477 
	C123.318687,327.205994 131.034485,317.863403 137.145447,306.699738 
	C140.428543,326.656097 163.583206,331.475220 179.848816,329.957489 
	C176.269409,327.548767 173.745407,325.594177 170.991150,324.050354 
	C165.338425,320.882019 159.502838,318.039795 153.851181,314.869568 
	C145.713608,310.304901 141.804657,303.226898 141.945724,293.904724 
	C141.945724,293.904724 142.060791,293.468567 142.461639,293.150818 
	C152.693039,286.920624 162.459045,287.458008 172.860794,291.895386 
	C179.503082,294.729034 186.823334,296.194153 193.979019,297.520935 
	C198.274673,298.317383 202.838531,297.667206 207.281845,297.667206 
	C207.383133,297.093658 207.484436,296.520111 207.585724,295.946533 
	C198.632507,292.097931 189.577972,288.466064 180.753769,284.341461 
	C171.396622,279.967743 161.924103,278.042053 151.809845,281.087097 
	C148.700058,275.975311 149.483612,270.783081 152.130157,265.241455 
	C162.015244,260.249664 171.136703,260.684418 180.512848,264.885376 
	C184.695236,266.759277 189.351562,267.890869 193.908752,268.522156 
	C198.286942,269.128632 202.814972,268.653290 207.277161,268.653290 
	C207.321701,268.210571 207.366226,267.767853 207.410767,267.325134 
	C193.244873,259.807343 179.767059,250.208099 162.204498,252.965042 
	C159.422104,247.510422 157.612534,241.916458 160.342987,235.367874 
	C163.983963,234.237137 167.356979,234.087524 169.971588,232.602554 
	C173.011475,230.876022 178.040833,226.879654 177.586395,225.782928 
	C175.721176,221.281616 171.062744,221.934418 166.896286,222.980194 
	C159.570724,193.639862 163.051788,163.747238 163.414093,134.165909 
	C163.664993,113.681313 172.471619,95.187988 186.035629,79.213722 
	C195.448685,68.127983 206.588058,59.722427 220.344910,54.140678 
	C221.286942,56.550182 221.918884,58.638073 221.954361,60.736042 
	C222.091599,68.853615 222.038727,76.974411 222.013000,85.273392 
	C221.969345,85.452774 221.904633,85.815994 221.562225,85.886215 
	C204.939011,96.849358 194.931183,111.687881 192.546692,131.370972 
	C192.446823,131.357788 192.486877,131.697556 192.370972,132.036880 
	C192.269653,132.614807 192.284225,132.853424 192.221436,133.549255 
	C192.098282,152.800949 192.199997,171.597260 191.966019,190.389404 
	C191.722000,209.987045 197.960709,227.312195 210.161682,242.392624 
	C220.941757,255.716858 234.296005,265.089966 252.336761,266.791931 
	C253.096924,266.964386 253.533325,267.053009 254.085815,267.454163 
	C259.300903,272.631409 264.062164,277.928009 269.587006,282.248077 
	C276.038422,287.292633 283.156464,291.484680 289.740906,296.294281 
	C285.154388,298.200409 280.812195,299.858856 276.470001,301.517303 
	C276.540955,302.125000 276.611908,302.732697 276.682861,303.340393 
	C287.416077,302.865051 298.149323,302.389740 309.195831,302.116577 
	C313.971558,303.541229 318.379883,305.524963 322.906372,305.846924 
	C337.933319,306.915619 353.002747,307.386414 367.932678,308.399414 
	C363.764374,311.713379 360.070557,315.457336 355.604858,317.569061 
	C344.501648,322.819550 333.036713,327.303040 321.744537,332.158569 
	C320.224731,332.812103 318.863647,333.834747 317.429047,334.686493 
	C320.501617,335.842041 323.203949,336.288605 325.701263,335.762268 
	C334.942261,333.814850 344.231354,331.943207 353.285767,329.300720 
	C365.391266,325.767731 374.438354,318.892853 375.829895,305.131409 
	C382.494537,316.286377 390.041687,326.607483 401.290466,333.740265 
	C404.701355,335.903107 407.632996,338.821777 410.446259,341.654602 
	C401.405884,339.647095 392.900177,341.356720 385.465912,345.429962 
	C374.580597,351.394043 363.941254,358.039429 354.022797,365.493164 
	C321.845856,389.674286 286.062195,401.200714 245.777802,398.032288 
	C238.829971,397.485809 231.904205,396.658844 224.662933,395.735657 
	C221.310715,394.746246 218.260727,393.994690 215.217422,393.217072 
	C192.745163,387.474884 173.633804,375.406494 155.236069,361.806641 
	C147.658401,356.205109 139.688293,350.977478 131.367615,346.581177 
	C122.641319,341.970642 113.161484,339.344757 103.058792,342.112885 
M238.129883,336.195251 
	C227.527100,335.526123 216.882294,333.639008 206.080551,336.975281 
	C216.948822,346.769470 252.318878,349.639740 262.613525,340.831421 
	C254.180756,339.221191 246.602631,337.774109 238.129883,336.195251 
z"/>
<path fill="#F2CC81" opacity="1.000000" stroke="none" 
	d="
M102.924805,342.421295 
	C113.161484,339.344757 122.641319,341.970642 131.367615,346.581177 
	C139.688293,350.977478 147.658401,356.205109 155.236069,361.806641 
	C173.633804,375.406494 192.745163,387.474884 215.217422,393.217072 
	C218.260727,393.994690 221.310715,394.746246 224.857224,396.012360 
	C227.583206,398.500214 229.697937,400.630127 232.053223,402.448517 
	C254.738327,419.961853 280.258881,429.822845 309.075287,429.951508 
	C352.661591,430.146149 396.249512,429.993134 439.836731,429.987885 
	C440.826233,442.425934 441.815704,454.863983 442.836365,467.693787 
	C318.714264,467.693787 195.656372,467.693787 71.622192,467.693787 
	C72.056488,459.880188 72.466164,452.035889 72.937691,444.195282 
	C73.243690,439.107025 73.216072,433.951172 74.076828,428.952881 
	C76.465454,415.082367 78.759331,401.163239 82.031548,387.488495 
	C84.229378,378.303680 87.426300,369.230377 91.310669,360.618896 
	C94.192635,354.229675 98.897781,348.662842 102.924805,342.421295 
z"/>
<path fill="#575553" opacity="1.000000" stroke="none" 
	d="
M289.985260,296.046600 
	C283.156464,291.484680 276.038422,287.292633 269.587006,282.248077 
	C264.062164,277.928009 259.300903,272.631409 254.528854,267.378296 
	C259.790436,266.431061 264.858795,266.410370 269.637451,265.223419 
	C295.036407,258.914673 318.331268,232.554367 320.629669,204.183273 
	C322.554443,180.424377 321.301697,156.408035 321.446533,132.505646 
	C321.447449,132.355179 321.315979,132.203903 321.223511,131.620148 
	C317.654694,97.273613 283.422180,70.905396 249.578247,75.646111 
	C239.687393,77.031578 230.742157,80.525574 222.056671,85.094002 
	C222.038727,76.974411 222.091599,68.853615 221.954361,60.736042 
	C221.918884,58.638073 221.286942,56.550182 220.687408,54.073429 
	C248.441498,41.726143 275.786774,43.488186 302.452728,57.753967 
	C324.852966,69.737663 339.620789,88.189713 347.056732,112.303772 
	C349.265472,119.466400 350.615936,127.141365 350.824677,134.624374 
	C351.349548,153.442154 351.197601,172.287445 350.905487,191.115326 
	C350.780273,199.186905 350.248322,207.359619 348.743958,215.266205 
	C347.662659,220.949051 348.334259,226.040161 351.309845,230.386124 
	C356.353699,237.753021 356.098358,244.801773 351.541229,252.590225 
	C333.707153,250.519623 320.555084,260.043365 306.807373,268.072174 
	C308.222534,268.805878 309.553070,269.227478 310.762268,269.001099 
	C319.513092,267.362610 328.412384,266.183167 336.921509,263.688049 
	C344.403076,261.494202 351.392578,260.103699 358.564850,264.120544 
	C359.544708,264.669312 360.777039,264.767365 361.892456,265.074097 
	C361.892456,265.074097 361.940247,265.053131 362.064331,265.257874 
	C362.379150,265.678864 362.590485,265.872650 362.822418,266.043945 
	C362.838135,271.053467 362.853882,276.062988 362.375885,281.471619 
	C352.319916,278.775665 343.240326,280.658600 334.229187,284.295837 
	C330.387695,285.846344 326.349243,286.968170 322.327454,288.001221 
	C311.567780,290.764954 300.768677,293.375305 289.985260,296.046600 
z"/>
<path fill="#F9DA93" opacity="1.000000" stroke="none" 
	d="
M439.910309,429.554230 
	C396.249512,429.993134 352.661591,430.146149 309.075287,429.951508 
	C280.258881,429.822845 254.738327,419.961853 232.053223,402.448517 
	C229.697937,400.630127 227.583206,398.500214 225.162537,396.238159 
	C231.904205,396.658844 238.829971,397.485809 245.777802,398.032288 
	C286.062195,401.200714 321.845856,389.674286 354.022797,365.493164 
	C363.941254,358.039429 374.580597,351.394043 385.465912,345.429962 
	C392.900177,341.356720 401.405884,339.647095 410.512024,341.999695 
	C421.020905,353.856262 426.663086,367.935272 430.854889,382.527069 
	C434.187897,394.129211 436.420319,406.056244 438.900879,417.889435 
	C439.667816,421.548035 439.645050,425.372223 439.910309,429.554230 
z"/>
<path fill="#575552" opacity="1.000000" stroke="none" 
	d="
M368.055908,308.086517 
	C353.002747,307.386414 337.933319,306.915619 322.906372,305.846924 
	C318.379883,305.524963 313.971558,303.541229 309.561096,301.987854 
	C321.685059,297.651337 333.849182,293.898743 345.795288,289.547516 
	C353.264160,286.827087 360.250488,286.415863 367.240967,290.556305 
	C368.362793,291.220764 369.672333,291.568298 370.895111,292.062378 
	C371.211182,292.515472 371.527222,292.968567 371.928528,294.129761 
	C370.694458,299.254089 369.375183,303.670288 368.055908,308.086517 
z"/>
<path fill="#3E3A36" opacity="1.000000" stroke="none" 
	d="
M370.874756,291.705353 
	C369.672333,291.568298 368.362793,291.220764 367.240967,290.556305 
	C360.250488,286.415863 353.264160,286.827087 345.795288,289.547516 
	C333.849182,293.898743 321.685059,297.651337 309.247803,301.785675 
	C298.149323,302.389740 287.416077,302.865051 276.682861,303.340393 
	C276.611908,302.732697 276.540955,302.125000 276.470001,301.517303 
	C280.812195,299.858856 285.154388,298.200409 289.740906,296.294281 
	C300.768677,293.375305 311.567780,290.764954 322.327454,288.001221 
	C326.349243,286.968170 330.387695,285.846344 334.229187,284.295837 
	C343.240326,280.658600 352.319916,278.775665 362.268555,281.876160 
	C365.388092,285.037201 368.121246,288.192780 370.874756,291.705353 
z"/>
<path fill="#3D3935" opacity="1.000000" stroke="none" 
	d="
M367.932678,308.399414 
	C369.375183,303.670288 370.694458,299.254089 372.024658,294.396606 
	C373.329193,297.403412 374.622864,300.851532 375.873230,304.715515 
	C374.438354,318.892853 365.391266,325.767731 353.285767,329.300720 
	C344.231354,331.943207 334.942261,333.814850 325.701263,335.762268 
	C323.203949,336.288605 320.501617,335.842041 317.429047,334.686493 
	C318.863647,333.834747 320.224731,332.812103 321.744537,332.158569 
	C333.036713,327.303040 344.501648,322.819550 355.604858,317.569061 
	C360.070557,315.457336 363.764374,311.713379 367.932678,308.399414 
z"/>
<path fill="#3D3935" opacity="1.000000" stroke="none" 
	d="
M151.619202,281.349365 
	C161.924103,278.042053 171.396622,279.967743 180.753769,284.341461 
	C189.577972,288.466064 198.632507,292.097931 207.585724,295.946533 
	C207.484436,296.520111 207.383133,297.093658 207.281845,297.667206 
	C202.838531,297.667206 198.274673,298.317383 193.979019,297.520935 
	C186.823334,296.194153 179.503082,294.729034 172.860794,291.895386 
	C162.459045,287.458008 152.693039,286.920624 142.526947,292.934937 
	C143.100311,287.473877 146.587631,283.995575 151.619202,281.349365 
z"/>
<path fill="#3D3935" opacity="1.000000" stroke="none" 
	d="
M161.966141,253.220581 
	C179.767059,250.208099 193.244873,259.807343 207.410767,267.325134 
	C207.366226,267.767853 207.321701,268.210571 207.277161,268.653290 
	C202.814972,268.653290 198.286942,269.128632 193.908752,268.522156 
	C189.351562,267.890869 184.695236,266.759277 180.512848,264.885376 
	C171.136703,260.684418 162.015244,260.249664 152.397644,264.964142 
	C152.506912,258.851166 157.166351,256.204865 161.966141,253.220581 
z"/>
<path fill="#3E3A36" opacity="1.000000" stroke="none" 
	d="
M361.902100,264.700256 
	C360.777039,264.767365 359.544708,264.669312 358.564850,264.120544 
	C351.392578,260.103699 344.403076,261.494202 336.921509,263.688049 
	C328.412384,266.183167 319.513092,267.362610 310.762268,269.001099 
	C309.553070,269.227478 308.222534,268.805878 306.807373,268.072174 
	C320.555084,260.043365 333.707153,250.519623 351.462494,252.956619 
	C355.991394,256.066437 361.128418,258.275665 361.902100,264.700256 
z"/>
<path fill="#3D3935" opacity="1.000000" stroke="none" 
	d="
M141.659866,294.100555 
	C141.804657,303.226898 145.713608,310.304901 153.851181,314.869568 
	C159.502838,318.039795 165.338425,320.882019 170.991150,324.050354 
	C173.745407,325.594177 176.269409,327.548767 179.848816,329.957489 
	C163.583206,331.475220 140.428543,326.656097 137.227951,306.351257 
	C138.489136,302.125580 139.931580,298.210968 141.659866,294.100555 
z"/>
<path fill="#3E3A36" opacity="1.000000" stroke="none" 
	d="
M166.552917,223.047333 
	C171.062744,221.934418 175.721176,221.281616 177.586395,225.782928 
	C178.040833,226.879654 173.011475,230.876022 169.971588,232.602554 
	C167.356979,234.087524 163.983963,234.237137 160.553757,235.007996 
	C159.361664,229.635849 160.729172,225.332077 166.552917,223.047333 
z"/>
<path fill="#3E3A36" opacity="1.000000" stroke="none" 
	d="
M362.758911,265.823547 
	C362.590485,265.872650 362.379150,265.678864 362.069946,265.283325 
	C362.272858,265.161011 362.520813,265.327362 362.758911,265.823547 
z"/>
<path fill="#F6C09C" opacity="1.000000" stroke="none" 
	d="
M321.246338,132.052994 
	C321.315979,132.203903 321.447449,132.355179 321.446533,132.505646 
	C321.301697,156.408035 322.554443,180.424377 320.629669,204.183273 
	C318.331268,232.554367 295.036407,258.914673 269.637451,265.223419 
	C264.858795,266.410370 259.790436,266.431061 254.412750,267.065765 
	C253.533325,267.053009 253.096924,266.964386 252.214951,266.489471 
	C251.323502,265.405365 250.949585,264.647125 250.421417,264.018494 
	C230.621613,240.452164 221.908264,213.035416 221.989304,182.523727 
	C222.044937,161.581528 222.040176,140.638855 221.947983,119.696915 
	C221.936554,117.101250 221.220856,114.508682 221.030426,111.713943 
	C221.815414,111.056511 222.401474,110.599815 223.355347,110.049011 
	C224.507629,109.685867 225.286987,109.400787 226.077240,109.150047 
	C260.935822,98.090469 292.198486,103.012794 318.529358,129.928284 
	C319.326263,130.742889 320.335907,131.349426 321.246338,132.052994 
z"/>
<path fill="#F3B596" opacity="1.000000" stroke="none" 
	d="
M220.831512,111.914680 
	C221.220856,114.508682 221.936554,117.101250 221.947983,119.696915 
	C222.040176,140.638855 222.044937,161.581528 221.989304,182.523727 
	C221.908264,213.035416 230.621613,240.452164 250.421417,264.018494 
	C250.949585,264.647125 251.323502,265.405365 251.891174,266.405579 
	C234.296005,265.089966 220.941757,255.716858 210.161682,242.392624 
	C197.960709,227.312195 191.722000,209.987045 191.966019,190.389404 
	C192.199997,171.597260 192.098282,152.800949 192.514709,133.405457 
	C194.047424,131.649094 195.233841,130.517044 196.367706,129.334610 
	C203.421127,121.979179 211.193527,115.638329 220.831512,111.914680 
z"/>
<path fill="#E9E9E8" opacity="1.000000" stroke="none" 
	d="
M321.223511,131.620148 
	C320.335907,131.349426 319.326263,130.742889 318.529358,129.928284 
	C292.198486,103.012794 260.935822,98.090469 226.077240,109.150047 
	C225.286987,109.400787 224.507629,109.685867 223.189331,109.659134 
	C222.405182,101.514236 222.154907,93.665115 221.904633,85.815994 
	C221.904633,85.815994 221.969345,85.452774 222.013000,85.273392 
	C230.742157,80.525574 239.687393,77.031578 249.578247,75.646111 
	C283.422180,70.905396 317.654694,97.273613 321.223511,131.620148 
z"/>
<path fill="#DAD6D8" opacity="1.000000" stroke="none" 
	d="
M221.562225,85.886215 
	C222.154907,93.665115 222.405182,101.514236 222.821503,109.753235 
	C222.401474,110.599815 221.815414,111.056511 221.030426,111.713943 
	C211.193527,115.638329 203.421127,121.979179 196.367706,129.334610 
	C195.233841,130.517044 194.047424,131.649094 192.592041,132.948242 
	C192.284225,132.853424 192.269653,132.614807 192.440033,132.014008 
	C192.625015,131.651794 192.646545,131.384155 192.646545,131.384155 
	C194.931183,111.687881 204.939011,96.849358 221.562225,85.886215 
z"/>
<path fill="#3D3935" opacity="1.000000" stroke="none" 
	d="
M238.577179,336.261169 
	C246.602631,337.774109 254.180756,339.221191 262.613525,340.831421 
	C252.318878,349.639740 216.948822,346.769470 206.080551,336.975281 
	C216.882294,333.639008 227.527100,335.526123 238.577179,336.261169 
z"/>
<path fill="#F3B596" opacity="1.000000" stroke="none" 
	d="
M192.546692,131.370972 
	C192.646545,131.384155 192.625015,131.651794 192.555939,131.674683 
	C192.486877,131.697556 192.446823,131.357788 192.546692,131.370972 
z"/>
</svg>