<?xml version="1.0" encoding="UTF-8"?>
<svg version="1.1" xmlns="http://www.w3.org/2000/svg" width="512" height="512">
<path d="M0 0 C18.89457808 16.06588398 31.1131207 38.19092647 33.53649139 62.97861862 C33.86418527 68.35821244 33.82485815 73.73416715 33.7734375 79.12109375 C33.77104257 80.81779336 33.77014996 82.51449567 33.7706604 84.2111969 C33.76756749 87.72975794 33.75126882 91.24790135 33.72412109 94.76635742 C33.68996186 99.24663788 33.6825 103.72646691 33.68401146 108.20686245 C33.6834648 111.69613344 33.67245333 115.18530838 33.65800858 118.6745472 C33.65170835 120.32614482 33.64771784 121.97775314 33.64622116 123.62936211 C33.63090081 131.68614335 33.53480313 139.49435451 31.73208618 147.39613342 C30.59549236 153.60308973 31.5560066 158.81649636 34.875 164.125 C37.99189047 169.2294728 38.15689477 173.83830705 37.3125 179.6875 C36.52992462 182.25310224 35.58235073 184.30652988 34.3125 186.6875 C35.034375 186.89375 35.75625 187.1 36.5 187.3125 C40.99792082 189.51148351 43.52942362 192.84450205 45.47265625 197.41796875 C46.4486309 201.21746078 46.29909522 204.34223564 46.0625 208.25 C45.98624749 210.7962237 46.08486649 213.13391901 46.3125 215.6875 C48.61126121 218.34697945 48.61126121 218.34697945 50.5859375 219.40625 C54.80355064 222.53606247 57.71336968 228.84662374 58.78125 233.91015625 C58.8740625 234.59980469 58.966875 235.28945313 59.0625 236 C60.70444566 245.39463754 70.03969856 255.89438561 77.3125 261.6875 C78.86292363 262.73388474 80.41416719 263.77919345 81.9765625 264.80761719 C94.58813269 273.13614841 101.33704732 284.07620511 107.3125 297.6875 C107.58690918 298.31221191 107.86131836 298.93692383 108.14404297 299.58056641 C117.09717211 320.50442232 120.72960898 343.22089182 123.3125 365.6875 C123.47371338 367.0168457 123.47371338 367.0168457 123.63818359 368.37304688 C124.75681925 379.18847716 124.3125 389.69258681 124.3125 400.6875 C2.2125 400.6875 -119.8875 400.6875 -245.6875 400.6875 C-245.6875 360.75102607 -242.67922511 311.33686661 -217.6875 277.6875 C-217.18089844 276.98753906 -216.67429687 276.28757812 -216.15234375 275.56640625 C-212.29903188 270.70952912 -207.63132821 267.44891006 -202.52807617 264.03588867 C-193.39806743 257.87764443 -184.06445563 248.79914954 -180.8828125 237.94140625 C-180.59397965 236.27681695 -180.33186248 234.60728544 -180.1015625 232.93359375 C-179.4251163 229.26419217 -177.72553086 226.80448838 -175.6875 223.6875 C-175.0275 222.615 -174.3675 221.5425 -173.6875 220.4375 C-171.6875 217.6875 -171.6875 217.6875 -169.5625 216.4296875 C-167.35016227 214.76670209 -167.35016227 214.76670209 -167.4375 211.6484375 C-167.52 210.46507812 -167.6025 209.28171875 -167.6875 208.0625 C-167.87969114 200.8996841 -167.14041296 195.42228341 -162.15625 190.03125 C-158.36666667 186.6875 -158.36666667 186.6875 -155.6875 186.6875 C-156.1825 185.759375 -156.6775 184.83125 -157.1875 183.875 C-159.3290366 178.88481567 -158.98666211 174.01872224 -158.6875 168.6875 C-158.65849609 167.54474609 -158.65849609 167.54474609 -158.62890625 166.37890625 C-158.38656796 162.49415004 -157.72905629 160.7386462 -155.25 157.6875 C-152.6875 155.6875 -152.6875 155.6875 -150.6875 155.6875 C-150.89246094 154.97464844 -151.09742188 154.26179687 -151.30859375 153.52734375 C-151.57800781 152.56957031 -151.84742188 151.61179688 -152.125 150.625 C-152.39183594 149.68527344 -152.65867187 148.74554688 -152.93359375 147.77734375 C-154.34743461 141.98279389 -154.81741901 136.33897386 -154.86450195 130.38549805 C-154.87107315 129.69162491 -154.87764435 128.99775177 -154.88441467 128.28285217 C-154.90398673 126.00497283 -154.91578045 123.72715925 -154.92578125 121.44921875 C-154.92985678 120.66169535 -154.9339323 119.87417194 -154.93813133 119.06278419 C-154.95893412 114.88585303 -154.97325495 110.70895404 -154.98266602 106.53198242 C-154.99365664 102.27054367 -155.02798694 98.0096377 -155.06783772 93.74838543 C-155.09431023 90.42697859 -155.10238504 87.10569221 -155.10594749 83.78418922 C-155.11074303 82.21648414 -155.12214859 80.64878173 -155.14098549 79.08118248 C-155.45966906 50.77838422 -145.46144778 25.16789822 -125.6875 4.6875 C-90.79193749 -29.14032624 -37.51196931 -29.4211524 0 0 Z " fill="#494643" transform="translate(316.6875,66.3125)"/>
<path d="M0 0 C0.66 0.33 1.32 0.66 2 1 C1.34 1.66 0.68 2.32 0 3 C1.08796875 3.15855469 2.1759375 3.31710937 3.296875 3.48046875 C22.6116521 6.46572045 36.02543847 15.04125586 51.4375 26.5 C80.05090225 47.73014259 111.31123874 60.86767004 147.35449219 60.52148438 C150.00028005 60.49999773 152.64335446 60.52146369 155.2890625 60.546875 C180.07068658 60.58752596 203.37495219 53.94194269 225 42 C225.60875977 41.66661621 226.21751953 41.33323242 226.84472656 40.98974609 C235.8150794 36.01343925 244.00733881 30.16199107 252.22045898 24.03076172 C266.23994372 13.5686302 281.7556495 2.63011703 300 4 C304.6658862 4.84834295 306.72682222 7.56886185 309.3359375 11.30859375 C325.08671128 36.78343678 330.60248176 66.66068359 334 96 C334.13277344 97.06734375 334.26554687 98.1346875 334.40234375 99.234375 C335.51575849 109.78893664 335 120.3959197 335 131 C212.9 131 90.8 131 -35 131 C-35 87.8624051 -31.48298562 33.39684492 0 0 Z " fill="#F1CC81" transform="translate(106,336)"/>
<path d="M0 0 C14.05533536 11.26549991 23.22111618 26.01459474 26.35839844 43.78369141 C26.76837643 49.29999849 26.78230151 54.78991369 26.75683594 60.31884766 C26.7588631 61.88960403 26.76177985 63.46035948 26.76553345 65.03111267 C26.76992534 68.30297925 26.76362716 71.57459806 26.74951172 74.84643555 C26.73240729 79.01085378 26.74228876 83.17469226 26.76022911 87.33908939 C26.7711403 90.57616945 26.7675875 93.81311511 26.75984573 97.05019951 C26.75786466 98.58457956 26.76022814 100.11897238 26.76728439 101.65333748 C26.79886398 110.44532998 26.26324747 118.41556182 23.35839844 126.78369141 C22.79378906 128.51425781 22.79378906 128.51425781 22.21777344 130.27978516 C17.60310097 142.51516674 11.60584302 152.50484633 2.35839844 161.78369141 C1.67132813 162.49396484 0.98425781 163.20423828 0.27636719 163.93603516 C-11.79402324 175.60333277 -27.20730536 180.26021726 -43.66503906 179.99853516 C-60.0790443 179.11172741 -73.21599655 168.7831477 -84.28613281 157.45556641 C-88.0103083 153.23112854 -90.88861362 148.68259816 -93.64160156 143.78369141 C-94.10308594 142.97158203 -94.56457031 142.15947266 -95.04003906 141.32275391 C-100.40639024 131.2730417 -103.73938515 120.21323325 -103.80273438 108.81298828 C-103.80769928 108.13088287 -103.81266418 107.44877747 -103.81777954 106.7460022 C-103.83233363 104.49813812 -103.8391946 102.25034479 -103.84472656 100.00244141 C-103.84755394 99.22890823 -103.85038132 98.45537506 -103.85329437 97.65840149 C-103.86826573 93.55855979 -103.87750602 89.45875304 -103.88183594 85.35888672 C-103.88729356 81.15752799 -103.91126963 76.95649777 -103.93980789 72.75524139 C-103.95859384 69.4966545 -103.96364844 66.23814388 -103.96517181 62.97950745 C-103.96816698 61.43280761 -103.97608706 59.88610809 -103.98935699 58.33946228 C-104.1389424 39.55202339 -100.45881494 22.88211617 -86.93457031 9.01806641 C-86.17789063 8.28072266 -85.42121094 7.54337891 -84.64160156 6.78369141 C-83.64580078 5.73955078 -83.64580078 5.73955078 -82.62988281 4.67431641 C-60.89871648 -16.68431564 -24.22842012 -17.95151533 0 0 Z " fill="#F5BD9A" transform="translate(294.6416015625,86.21630859375)"/>
<path d="M0 0 C18.89457808 16.06588398 31.1131207 38.19092647 33.53649139 62.97861862 C33.86418527 68.35821244 33.82485815 73.73416715 33.7734375 79.12109375 C33.77104257 80.81779336 33.77014996 82.51449567 33.7706604 84.2111969 C33.76756749 87.72975794 33.75126882 91.24790135 33.72412109 94.76635742 C33.68996186 99.24663788 33.6825 103.72646691 33.68401146 108.20686245 C33.6834648 111.69613344 33.67245333 115.18530838 33.65800858 118.6745472 C33.65170835 120.32614482 33.64771784 121.97775314 33.64622116 123.62936211 C33.63090081 131.68614335 33.53480313 139.49435451 31.73208618 147.39613342 C30.59549236 153.60308973 31.5560066 158.81649636 34.875 164.125 C37.99189047 169.2294728 38.15689477 173.83830705 37.3125 179.6875 C36.52992462 182.25310224 35.58235073 184.30652988 34.3125 186.6875 C35.034375 186.89375 35.75625 187.1 36.5 187.3125 C41.01590384 189.52027521 43.4453913 192.91199171 45.625 197.375 C46.80357143 203.05357142 47.15988749 209.14533754 45.3125 214.6875 C44.24515625 214.53410156 43.1778125 214.38070312 42.078125 214.22265625 C31.02398357 212.94524409 23.09667771 214.62431285 12.82421875 218.6328125 C6.54747994 221.06199494 0.12162862 222.82468851 -6.375 224.5625 C-7.46167969 224.86027344 -8.54835938 225.15804687 -9.66796875 225.46484375 C-26.08684207 229.83372712 -26.08684207 229.83372712 -31.49609375 227.09765625 C-32.72225526 226.34126114 -33.931859 225.55747765 -35.125 224.75 C-35.77041748 224.33685547 -36.41583496 223.92371094 -37.08081055 223.49804688 C-42.57703889 219.91840632 -47.74035892 215.99471239 -52.6875 211.6875 C-53.59886719 210.89730469 -54.51023437 210.10710937 -55.44921875 209.29296875 C-62.3408237 203.20751445 -62.3408237 203.20751445 -64.6875 199.6875 C-63.12515625 199.59275391 -63.12515625 199.59275391 -61.53125 199.49609375 C-46.76032896 198.33755608 -33.72274699 193.90691161 -22.6875 183.6875 C-21.94242187 183.03265625 -21.19734375 182.3778125 -20.4296875 181.703125 C-8.36003492 170.49266803 -1.8870894 155.35083343 2.3125 139.6875 C2.48577316 139.12380203 2.65904633 138.56010406 2.83757019 137.97932434 C3.47257584 134.91503698 3.4643496 131.99184957 3.48950195 128.86206055 C3.49607315 128.18331375 3.50264435 127.50456696 3.50941467 126.80525208 C3.52909801 124.56157296 3.5408067 122.31796105 3.55078125 120.07421875 C3.55485678 119.3022648 3.5589323 118.53031086 3.56313133 117.73496437 C3.58398313 113.63931169 3.59828184 109.54369229 3.60766602 105.44799805 C3.61865543 101.25679643 3.65296974 97.06613679 3.69283772 92.87512493 C3.71924983 89.62074437 3.72737995 86.36648731 3.73094749 83.11200905 C3.73575995 81.56973473 3.74721719 80.02746387 3.76598549 78.48529625 C3.98609425 59.18032895 -0.85249412 42.16090328 -14.43017578 27.79980469 C-26.95087346 15.14722062 -43.46214365 8.73149609 -61.1875 8.3125 C-72.37819959 8.58852959 -81.50852581 11.13709153 -91.32421875 16.48046875 C-93.6875 17.6875 -93.6875 17.6875 -95.6875 17.6875 C-95.6875 7.4575 -95.6875 -2.7725 -95.6875 -13.3125 C-96.3475 -13.6425 -97.0075 -13.9725 -97.6875 -14.3125 C-63.30036047 -26.62046524 -29.10989128 -22.83128728 0 0 Z " fill="#575553" transform="translate(316.6875,66.3125)"/>
<path d="M0 0 C18.56852809 18.62234991 27.88489186 58.73602358 28.01635742 84.16381836 C28.01095947 85.0997583 28.00556152 86.03569824 28 87 C9.70057183 87.09390208 -8.59879286 87.16420199 -26.8984108 87.20724869 C-35.39736285 87.22777712 -43.89616425 87.25570901 -52.39501953 87.30175781 C-59.81218668 87.34192624 -67.2292446 87.3675032 -74.64651752 87.37635398 C-78.56527676 87.38151861 -82.48372384 87.39344776 -86.4023819 87.42292023 C-106.42712127 87.56768227 -125.90069776 87.24977806 -144.8125 79.75 C-145.58762939 79.4511792 -146.36275879 79.1523584 -147.16137695 78.84448242 C-160.69847697 73.480516 -178.70854851 65.43717724 -187 53 C-186.44304443 53.06856201 -185.88608887 53.13712402 -185.31225586 53.20776367 C-176.32865093 54.17421717 -167.35036909 54.25598205 -158.32446289 54.29516602 C-156.49918832 54.30662138 -154.67394551 54.32696949 -152.84887695 54.35668945 C-126.79386613 54.77864249 -102.79470849 48.5878613 -80 36 C-79.39124023 35.66661621 -78.78248047 35.33323242 -78.15527344 34.98974609 C-69.1849206 30.01343925 -60.99266119 24.16199107 -52.77954102 18.03076172 C-15.1149858 -10.0766572 -15.1149858 -10.0766572 0 0 Z " fill="#F8D992" transform="translate(411,342)"/>
<path d="M0 0 C12.33212748 9.88433058 21.98838181 23.15906886 25.35839844 38.78369141 C25.48339844 42.22119141 25.48339844 42.22119141 25.35839844 44.78369141 C24.36839844 43.93806641 23.37839844 43.09244141 22.35839844 42.22119141 C21.71257812 41.67205078 21.06675781 41.12291016 20.40136719 40.55712891 C19.09105997 39.41969205 17.79976622 38.25974941 16.53417969 37.07275391 C-1.78018709 20.10220859 -24.58380449 16.89617067 -48.5703125 17.61767578 C-66.74329791 18.59999932 -85.17823184 27.45913899 -97.54003906 40.83837891 C-98.93217323 42.46580335 -100.29111007 44.12154803 -101.64160156 45.78369141 C-101.97160156 45.78369141 -102.30160156 45.78369141 -102.64160156 45.78369141 C-103.8350206 33.849501 -97.8297723 21.99353517 -90.64160156 12.78369141 C-68.37268734 -13.83731325 -28.81816699 -21.35218738 0 0 Z " fill="#E9E8E7" transform="translate(294.6416015625,86.21630859375)"/>
<path d="M0 0 C3.71316693 1.56724578 6.98458141 2.98048882 9.53125 6.203125 C10.11237382 12.11121715 9.27004109 14.89190103 6.53125 20.203125 C-14.66688592 20.45383076 -34.70676354 20.06921558 -55.46875 15.203125 C-52.82270711 12.55708211 -50.06669177 12.28814212 -46.53125 11.515625 C-35.5838672 8.96153027 -24.9355614 5.12215752 -14.68359375 0.515625 C-9.59440627 -1.56209917 -5.24513775 -1.69305079 0 0 Z " fill="#565452" transform="translate(361.46875,286.796875)"/>
<path d="M0 0 C4.17163804 2.47378904 6.53230959 4.90194427 8.4375 9.375 C8.7159375 10.674375 8.7159375 10.674375 9 12 C8.38511719 11.65066406 7.77023437 11.30132812 7.13671875 10.94140625 C6.32847656 10.48636719 5.52023437 10.03132813 4.6875 9.5625 C3.88699219 9.11003906 3.08648437 8.65757812 2.26171875 8.19140625 C-3.05757574 5.38935993 -8.5764641 5.01828738 -14.34814453 6.67333984 C-16.78728294 7.61107903 -19.17356443 8.62852866 -21.5625 9.6875 C-23.32367572 10.42758332 -25.08672764 11.16321658 -26.8515625 11.89453125 C-27.71942383 12.25498535 -28.58728516 12.61543945 -29.48144531 12.98681641 C-33.08780498 14.43761057 -36.73265765 15.70148508 -40.4375 16.875 C-42.16806641 17.42800781 -42.16806641 17.42800781 -43.93359375 17.9921875 C-54.47360622 20.82391463 -64.95509289 21.27334082 -75.8125 21.125 C-77.08931641 21.11597656 -78.36613281 21.10695313 -79.68164062 21.09765625 C-82.78796716 21.07438789 -85.89387572 21.04170155 -89 21 C-88 19 -88 19 -86.09594727 18.24145508 C-85.26119873 18.00322021 -84.4264502 17.76498535 -83.56640625 17.51953125 C-82.62055664 17.24625 -81.67470703 16.97296875 -80.70019531 16.69140625 C-79.14703613 16.25634766 -79.14703613 16.25634766 -77.5625 15.8125 C-75.95713379 15.35230469 -75.95713379 15.35230469 -74.31933594 14.8828125 C-65.40391148 12.34516627 -56.44154578 9.99194624 -47.4753418 7.64160156 C-39.65155422 5.55021683 -32.0372006 3.07577938 -24.49121094 0.1328125 C-16.39363654 -2.91916083 -8.23862547 -2.81318918 0 0 Z " fill="#3D3935" transform="translate(362,281)"/>
<path d="M0 0 C0.33 8.25 0.66 16.5 1 25 C-0.93875 25.99 -2.8775 26.98 -4.875 28 C-14.08629408 32.87500006 -21.42495985 38.90764289 -28 47 C-28.33 47 -28.66 47 -29 47 C-30.18913922 35.10860783 -24.22372117 23.15004682 -17 14 C-4.44812899 0 -4.44812899 0 0 0 Z " fill="#DAD5D7" transform="translate(221,85)"/>
<path d="M0 0 C3.2365243 3.09580585 4.19032003 5.01085603 4.375 9.5 C4.28696234 16.269118 1.86819119 21.75588084 -2.609375 26.8203125 C-16.20714883 39.23295926 -38.35722364 42.56306733 -56 42 C-53.74016359 39.48113454 -51.599889 38.1581702 -48.52734375 36.765625 C-47.63611816 36.35989258 -46.74489258 35.95416016 -45.82666016 35.53613281 C-44.8732373 35.11170898 -43.91981445 34.68728516 -42.9375 34.25 C-41.9582959 33.8075293 -40.9790918 33.36505859 -39.97021484 32.90917969 C-33.76161297 30.13437431 -27.49761893 27.61867384 -21.125 25.25 C-13.43279592 22.3437962 -6.7481481 19.60666367 -2.5625 12.125 C-0.8091359 8.12393126 -0.30986752 4.33814526 0 0 Z " fill="#3D3935" transform="translate(371,293)"/>
<path d="M0 0 C1.26643727 0.53241659 2.53336279 1.06367336 3.80078125 1.59375 C10.83408171 4.55651068 17.73067488 7.72348895 24.5 11.25 C24.5 11.58 24.5 11.91 24.5 12.25 C10.42190259 12.87724196 -1.28765423 10.78826151 -14.54760742 6.17822266 C-24.31799436 2.78418303 -29.80354511 2.09740091 -39.3984375 6.375 C-41.5 7.25 -41.5 7.25 -43.5 7.25 C-42.43502395 2.28011177 -40.50858608 -0.41558738 -36.61328125 -3.48828125 C-24.72165265 -10.58808908 -11.48036822 -4.95589338 0 0 Z " fill="#3D3935" transform="translate(184.5,284.75)"/>
<path d="M0 0 C0.495 0.99 0.495 0.99 1 2 C-10.24370237 2.68097794 -19.44887018 1.21905346 -30.10620117 -2.36547852 C-38.18176388 -5.07121365 -44.600616 -6.04257114 -52.5 -2.375 C-53.325 -1.92125 -54.15 -1.4675 -55 -1 C-55.66 -1.33 -56.32 -1.66 -57 -2 C-54.39416418 -8.22505224 -50.99477524 -11.73297971 -44.75 -14.375 C-29.00274652 -16.99954225 -13.11077648 -7.84181578 0 0 Z " fill="#3D3935" transform="translate(207,266)"/>
<path d="M0 0 C3.97153258 2.34197591 7.23297775 5.88982689 8.5546875 10.33984375 C8.66683594 10.92636719 8.77898437 11.51289063 8.89453125 12.1171875 C3.30347165 10.33821399 3.30347165 10.33821399 0.96484375 9.07421875 C-5.3812197 6.14066112 -12.05699908 8.24086299 -18.29296875 10.4921875 C-19.42089844 10.93304688 -20.54882812 11.37390625 -21.7109375 11.828125 C-28.39961616 14.36812955 -33.96067884 15.39997631 -41.04296875 15.2421875 C-41.82220703 15.23316406 -42.60144531 15.22414063 -43.40429688 15.21484375 C-45.30482322 15.19152441 -47.20518883 15.15566336 -49.10546875 15.1171875 C-45.21205747 11.76182922 -41.24382008 9.43221006 -36.66796875 7.1796875 C-35.96929687 6.83486328 -35.270625 6.49003906 -34.55078125 6.13476562 C-11.78082822 -4.87963299 -11.78082822 -4.87963299 0 0 Z " fill="#3D3935" transform="translate(353.10546875,252.8828125)"/>
<path d="M0 0 C0.33 0 0.66 0 1 0 C1.15855469 0.79664063 1.31710938 1.59328125 1.48046875 2.4140625 C1.71378906 3.47367187 1.94710937 4.53328125 2.1875 5.625 C2.40792969 6.66914063 2.62835938 7.71328125 2.85546875 8.7890625 C5.19980579 15.36600806 9.52096612 18.69428552 15.5 21.9375 C16.10368408 22.27104492 16.70736816 22.60458984 17.3293457 22.94824219 C20.42935327 24.65242006 23.55990624 26.29541543 26.69921875 27.92578125 C27.85035156 28.52777344 29.00148437 29.12976563 30.1875 29.75 C31.23292969 30.28109375 32.27835938 30.8121875 33.35546875 31.359375 C35.99435199 32.99649606 37.35465182 34.39910596 39 37 C26.83655478 37.62914372 13.64676542 35.11441959 3.6875 27.75 C-1.55702372 22.38351061 -3.59628696 16.79605025 -4.11328125 9.33984375 C-3.93495197 5.65642164 -2.61819911 2.61819911 0 0 Z " fill="#3D3935" transform="translate(140,293)"/>
<path d="M0 0 C-1 2 -1 2 -2.9140625 2.8515625 C-20.12176713 7.76096526 -39.81779382 6.58596828 -55.9375 -1.25 C-56.948125 -1.8275 -57.95875 -2.405 -59 -3 C-59 -3.66 -59 -4.32 -59 -5 C-39.38537743 -7.69646696 -18.96901207 -5.64268081 0 0 Z " fill="#3D3935" transform="translate(263,340)"/>
<path d="M0 0 C-1.51602308 4.24486463 -4.16089161 5.82691978 -8 8 C-11.95063968 9.36228955 -14.80858825 10 -19 10 C-19.42669527 5.64770828 -19.51064497 3.67113339 -16.8125 0.125 C-11.3097711 -4.03261739 -5.72857681 -3.81905121 0 0 Z " fill="#3D3935" transform="translate(178,224)"/>
<path d="M0 0 C0.66 0.33 1.32 0.66 2 1 C-3.94 6.94 -9.88 12.88 -16 19 C-16 14.76641181 -13.57639709 12.97541337 -10.8125 10.0625 C-10.08836914 9.27456055 -10.08836914 9.27456055 -9.34960938 8.47070312 C-6.43336087 5.34307553 -3.41697361 2.59240228 0 0 Z " fill="#524F4D" transform="translate(199,64)"/>
</svg>
